<svg width="87" height="87" viewBox="0 0 87 87" fill="none" xmlns="http://www.w3.org/2000/svg">
<path d="M39.7486 69.8906C39.7486 69.8906 42.764 62.5983 43.0111 57.6923" stroke="#B7B9B6" stroke-width="0.5" stroke-miterlimit="10"/>
<path d="M45.494 53.1057C45.494 53.1057 45.7481 53.8312 47.7778 53.4319C49.8075 53.0343 57.7837 48.7931 61.0818 48.4668C64.38 48.1406 67.4972 52.7794 69.7087 54.3019C69.7087 54.3019 70.8319 54.375 71.0137 54.3019C71.0137 54.3019 66.8821 60.1744 62.8218 61.6969C58.7615 63.2194 53.7225 60.03 52.0912 58.1456C50.46 56.2594 47.669 55.5356 46.9078 55.7887C46.9078 55.7887 46.9078 55.934 47.4515 56.4056C47.9953 56.8762 51.0768 59.7394 52.2731 60.7912C53.4693 61.8431 53.4337 63.2925 53.4693 64.1982C53.505 65.1056 53.8312 69.8906 53.8312 69.8906C53.8312 69.8906 52.5993 68.3307 51.8381 67.9687C51.0768 67.6068 46.6537 67.9322 45.2765 61.9144C45.2765 61.9144 44.9668 60.1031 44.8494 58.5075C44.8494 58.5075 44.37 56.6222 43.9715 56.6944C43.5731 56.7675 43.4278 60.6103 42.3037 62.1328C41.1797 63.6553 40.7447 64.8515 37.4822 66.2653C37.4822 66.2653 36.3225 67.2075 36.2137 67.6068V62.5678C36.2137 62.5678 38.0625 59.3775 40.201 58.1456C42.3394 56.9128 41.3972 56.2603 41.3972 56.2603C41.3972 56.2603 39.8382 56.985 38.0982 58.3987C36.3582 59.8125 31.7185 63.6553 29.1807 63.6553C26.6429 63.6553 23.9607 62.459 22.4747 60.7556L19.9735 60.5737L21.3689 59.287L21.7135 59.0147C21.7135 59.0147 22.8732 54.8822 25.8094 54.0122C28.7457 53.1422 28.2019 52.3435 32.1169 52.5254C36.0319 52.7072 38.0616 54.9179 41.1066 54.3384C41.1066 54.3384 40.9613 53.0334 42.0488 53.1422C42.0488 53.1422 42.8101 51.9459 44.1516 52.5254C45.4932 53.1048 45.494 53.1057 45.494 53.1057Z" fill="#91C578"/>
<path d="M44.37 53.7225C45.0521 53.3284 45.8177 50.2964 46.1518 49.456C47.9231 44.9938 48.3711 39.7216 50.46 35.3437C51.6023 32.9512 52.6898 32.19 54.81 30.3952C56.9302 28.6004 57.855 27.7852 63.5648 28.4377C63.5648 28.4377 65.3596 29.0362 67.4798 26.5341C67.4798 26.5341 66.8812 28.6004 66.99 29.8514C67.0987 31.1025 67.86 38.2252 66.5002 40.7264C65.1404 43.2277 65.1404 44.5327 58.5614 46.9252C51.9825 49.3177 44.37 53.7225 44.37 53.7225Z" fill="#1D4C23"/>
<path d="M43.1737 53.3423C43.1737 53.3423 34.8 36.4861 32.6789 33.495C30.5579 30.504 32.3527 25.9913 36.2677 21.4777C36.2677 21.4777 39.7477 18.8677 39.7477 16.7466C39.7477 16.7466 41.76 20.0091 43.1737 21.0427C44.5875 22.0763 46.2736 22.4025 47.415 24.0338C47.415 24.0338 53.5215 28.4812 50.46 32.8425C44.8494 40.8361 43.1737 53.3423 43.1737 53.3423Z" fill="#218035"/>
<path d="M42.0862 54.2123C42.0862 54.2123 34.6912 41.4337 33.6038 38.9325C32.5163 36.4312 30.3413 34.2562 26.8064 33.3314C23.2716 32.4066 17.2904 34.0927 16.3664 32.4614C16.3664 36.232 16.1133 40.3541 17.5627 43.935C18.4875 46.2187 20.445 49.3185 26.5889 49.8075C32.7329 50.2964 41.8687 54.2123 41.8687 54.2123" fill="#61B340"/>
</svg>
