<?xml version="1.0" encoding="utf-8"?>
<!-- Generator: Adobe Illustrator 16.2.0, SVG Export Plug-In . SVG Version: 6.00 Build 0)  -->
<!DOCTYPE svg PUBLIC "-//W3C//DTD SVG 1.1//EN" "http://www.w3.org/Graphics/SVG/1.1/DTD/svg11.dtd">
<svg version="1.1" id="Слой_1" xmlns="http://www.w3.org/2000/svg" xmlns:xlink="http://www.w3.org/1999/xlink" x="0px" y="0px"
	 width="190px" height="66.101px" viewBox="0 0 190 66.101" enable-background="new 0 0 190 66.101" xml:space="preserve">
<g>
	<g>
		<path fill="#231F20" d="M91.775,29.53c-0.404,0.146-1.201,0.384-2.143,0.384c-1.057,0-1.928-0.271-2.611-0.922
			c-0.6-0.58-0.973-1.513-0.973-2.601c0.01-2.081,1.439-3.604,3.779-3.604c0.809,0,1.439,0.176,1.74,0.323l-0.217,0.734
			c-0.374-0.164-0.84-0.301-1.543-0.301c-1.699,0-2.808,1.058-2.808,2.807c0,1.772,1.066,2.817,2.692,2.817
			c0.591,0,0.995-0.084,1.202-0.187v-2.08h-1.419v-0.727h2.299V29.53z"/>
		<path fill="#231F20" d="M94.281,27.646l-0.725,2.193h-0.932l2.371-6.979h1.087l2.382,6.979h-0.963l-0.746-2.193H94.281z
			 M96.57,26.942l-0.684-2.012c-0.156-0.455-0.26-0.869-0.363-1.272h-0.02c-0.104,0.414-0.219,0.839-0.354,1.264l-0.684,2.021H96.57
			z"/>
		<path fill="#231F20" d="M99.49,22.954c0.455-0.093,1.107-0.146,1.729-0.146c0.964,0,1.584,0.176,2.02,0.57
			c0.352,0.31,0.549,0.787,0.549,1.326c0,0.919-0.58,1.533-1.314,1.78v0.032c0.538,0.184,0.859,0.683,1.025,1.406
			c0.229,0.974,0.393,1.647,0.539,1.916h-0.933c-0.114-0.197-0.271-0.795-0.466-1.664c-0.207-0.965-0.581-1.327-1.398-1.359h-0.85
			v3.023h-0.9V22.954z M100.391,26.134h0.922c0.963,0,1.574-0.529,1.574-1.326c0-0.902-0.652-1.294-1.605-1.305
			c-0.435,0-0.746,0.041-0.891,0.084V26.134z"/>
		<path fill="#231F20" d="M106.48,23.628h-2.123v-0.767h5.166v0.767h-2.133v6.212h-0.91V23.628z"/>
		<path fill="#231F20" d="M113.914,26.567h-2.713v2.517h3.023v0.756H110.3v-6.979h3.771v0.754h-2.869v2.209h2.713V26.567z"/>
		<path fill="#231F20" d="M115.395,29.84v-6.979h0.984l2.236,3.53c0.518,0.819,0.922,1.554,1.254,2.268l0.02-0.009
			c-0.082-0.933-0.104-1.782-0.104-2.87v-2.919h0.85v6.979h-0.91l-2.217-3.541c-0.487-0.776-0.953-1.574-1.305-2.33l-0.032,0.011
			c0.052,0.88,0.073,1.719,0.073,2.878v2.982H115.395z"/>
		<path fill="#231F20" d="M127.521,29.53c-0.404,0.146-1.201,0.384-2.145,0.384c-1.057,0-1.926-0.271-2.609-0.922
			c-0.602-0.58-0.975-1.513-0.975-2.601c0.012-2.081,1.44-3.604,3.78-3.604c0.808,0,1.44,0.176,1.741,0.323l-0.218,0.734
			c-0.373-0.164-0.839-0.301-1.544-0.301c-1.697,0-2.807,1.058-2.807,2.807c0,1.772,1.067,2.817,2.693,2.817
			c0.59,0,0.994-0.084,1.201-0.187v-2.08h-1.418v-0.727h2.299V29.53z"/>
		<path fill="#231F20" d="M132.512,26.567h-2.713v2.517h3.023v0.756h-3.925v-6.979h3.771v0.754h-2.869v2.209h2.713V26.567z"/>
		<path fill="#231F20" d="M133.867,28.743c0.404,0.249,0.995,0.455,1.616,0.455c0.922,0,1.46-0.487,1.46-1.189
			c0-0.652-0.372-1.025-1.316-1.39c-1.139-0.403-1.842-0.995-1.842-1.979c0-1.086,0.9-1.895,2.256-1.895
			c0.717,0,1.234,0.167,1.545,0.343l-0.25,0.736c-0.227-0.123-0.693-0.334-1.324-0.334c-0.953,0-1.316,0.57-1.316,1.047
			c0,0.653,0.428,0.974,1.389,1.347c1.182,0.455,1.783,1.025,1.783,2.05c0,1.077-0.799,2.01-2.444,2.01
			c-0.675,0-1.409-0.195-1.782-0.444L133.867,28.743z"/>
		<path fill="#231F20" d="M140.422,23.628h-2.121v-0.767h5.168v0.767h-2.137v6.212h-0.91V23.628z"/>
		<path fill="#231F20" d="M144.598,27.646l-0.729,2.193h-0.93l2.369-6.979h1.088l2.385,6.979h-0.965l-0.746-2.193H144.598z
			 M146.885,26.942l-0.684-2.012c-0.156-0.455-0.258-0.869-0.361-1.272h-0.023c-0.104,0.414-0.215,0.839-0.35,1.264l-0.686,2.021
			H146.885z"/>
		<path fill="#231F20" d="M149.805,22.861h0.9v6.223h2.982v0.756h-3.883V22.861z"/>
		<path fill="#231F20" d="M157.789,23.628h-2.125v-0.767h5.17v0.767h-2.135v6.212h-0.91V23.628z"/>
		<path fill="#231F20" d="M162.512,22.861v4.131c0,1.564,0.691,2.228,1.623,2.228c1.035,0,1.699-0.685,1.699-2.228v-4.131h0.912
			v4.07c0,2.144-1.129,3.023-2.641,3.023c-1.43,0-2.506-0.819-2.506-2.982v-4.111H162.512z"/>
		<path fill="#231F20" d="M168.309,29.84v-6.979h0.984l2.236,3.53c0.52,0.819,0.922,1.554,1.254,2.268l0.021-0.009
			c-0.082-0.933-0.105-1.782-0.105-2.87v-2.919h0.852v6.979h-0.916l-2.217-3.541c-0.482-0.776-0.949-1.574-1.303-2.33l-0.031,0.011
			c0.055,0.88,0.072,1.719,0.072,2.878v2.982H168.309z"/>
		<path fill="#231F20" d="M180.434,29.53c-0.402,0.146-1.201,0.384-2.143,0.384c-1.057,0-1.926-0.271-2.609-0.922
			c-0.602-0.58-0.975-1.513-0.975-2.601c0.012-2.081,1.439-3.604,3.781-3.604c0.809,0,1.439,0.176,1.742,0.323l-0.219,0.734
			c-0.375-0.164-0.84-0.301-1.543-0.301c-1.699,0-2.807,1.058-2.807,2.807c0,1.772,1.066,2.817,2.691,2.817
			c0.592,0,0.994-0.084,1.203-0.187v-2.08h-1.42v-0.727h2.297V29.53z"/>
	</g>
	<g>
		<path fill="#231F20" d="M96.648,48.138h-1.75l-3.818-5.007v5.007h-1.391V37.929h1.391v4.74l3.74-4.74h1.648l-4.03,4.851
			L96.648,48.138z"/>
		<path fill="#231F20" d="M100.96,39.1h-2.353v-1.171h6.108V39.1h-2.351v7.851h2.351v1.188h-6.108V46.95h2.353V39.1z"/>
		<path fill="#231F20" d="M114.269,48.138h-1.569l-1.523-3.265c-0.115-0.251-0.232-0.457-0.353-0.622
			c-0.12-0.164-0.248-0.294-0.386-0.39c-0.139-0.098-0.289-0.167-0.453-0.208s-0.348-0.063-0.551-0.063h-0.656v4.547h-1.391V37.929
			h2.733c0.595,0,1.104,0.065,1.53,0.195c0.428,0.13,0.777,0.313,1.051,0.546c0.274,0.234,0.475,0.517,0.603,0.848
			c0.127,0.332,0.19,0.696,0.19,1.097c0,0.318-0.046,0.618-0.14,0.904c-0.093,0.283-0.233,0.542-0.419,0.773
			c-0.184,0.229-0.413,0.432-0.688,0.601c-0.271,0.169-0.586,0.295-0.939,0.377c0.285,0.1,0.529,0.273,0.729,0.521
			c0.2,0.249,0.405,0.578,0.612,0.988L114.269,48.138z M112.041,40.731c0-0.546-0.17-0.956-0.511-1.225
			c-0.341-0.271-0.821-0.407-1.44-0.407h-1.313v3.377h1.125c0.328,0,0.623-0.039,0.886-0.115s0.487-0.188,0.672-0.336
			c0.185-0.149,0.327-0.329,0.429-0.546C111.991,41.263,112.041,41.016,112.041,40.731z"/>
		<path fill="#231F20" d="M122.625,47.754c-0.818,0.338-1.675,0.507-2.569,0.507c-1.442,0-2.55-0.429-3.323-1.291
			c-0.773-0.863-1.16-2.138-1.16-3.823c0-0.817,0.106-1.557,0.32-2.218c0.213-0.663,0.519-1.223,0.914-1.684
			c0.396-0.46,0.875-0.815,1.437-1.064c0.563-0.252,1.192-0.377,1.891-0.377c0.474,0,0.914,0.041,1.319,0.119
			c0.406,0.082,0.797,0.205,1.172,0.372v1.366c-0.37-0.202-0.752-0.355-1.148-0.462c-0.396-0.108-0.828-0.16-1.297-0.16
			c-0.479,0-0.912,0.089-1.299,0.269c-0.389,0.178-0.719,0.439-0.988,0.78c-0.271,0.34-0.479,0.759-0.625,1.248
			c-0.146,0.492-0.219,1.056-0.219,1.685c0,1.322,0.268,2.321,0.804,2.991c0.536,0.672,1.323,1.008,2.358,1.008
			c0.438,0,0.857-0.05,1.258-0.152c0.4-0.102,0.786-0.242,1.156-0.427V47.754z"/>
		<path fill="#231F20" d="M131.584,48.138h-1.391v-4.688h-4.289v4.688h-1.39V37.929h1.39v4.32h4.289v-4.32h1.391V48.138z"/>
		<path fill="#231F20" d="M140.619,48.138h-1.748l-3.819-5.007v5.007h-1.392V37.929h1.392v4.74l3.739-4.74h1.648l-4.029,4.851
			L140.619,48.138z"/>
		<path fill="#231F20" d="M149.107,48.138h-1.811l-2.975-6.366l-0.861-2.048v5.149v3.265h-1.295V37.929h1.787l2.836,6.028
			l1.023,2.336v-5.466v-2.898h1.295V48.138z"/>
		<path fill="#231F20" d="M158.395,42.966c0,0.917-0.105,1.708-0.324,2.376c-0.217,0.665-0.508,1.216-0.873,1.649
			c-0.369,0.436-0.799,0.759-1.289,0.969c-0.492,0.212-1.014,0.316-1.557,0.316c-0.658,0-1.229-0.117-1.715-0.354
			c-0.488-0.238-0.893-0.581-1.211-1.027c-0.32-0.448-0.561-0.992-0.717-1.639c-0.156-0.642-0.232-1.367-0.232-2.174
			c0-0.906,0.104-1.69,0.318-2.358c0.215-0.667,0.504-1.218,0.871-1.651c0.367-0.436,0.795-0.759,1.285-0.969
			c0.49-0.212,1.008-0.316,1.557-0.316c0.656,0,1.227,0.119,1.713,0.357c0.484,0.241,0.893,0.583,1.215,1.029
			c0.322,0.444,0.563,0.986,0.721,1.628S158.395,42.164,158.395,42.966z M156.949,43.068c0-0.599-0.045-1.146-0.137-1.646
			c-0.09-0.496-0.236-0.923-0.439-1.283c-0.205-0.359-0.465-0.64-0.787-0.837c-0.32-0.197-0.707-0.297-1.156-0.297
			c-0.438,0-0.813,0.106-1.131,0.316c-0.316,0.211-0.576,0.499-0.777,0.861c-0.203,0.359-0.354,0.784-0.453,1.271
			c-0.1,0.486-0.148,1.002-0.148,1.55c0,0.605,0.047,1.153,0.141,1.654c0.096,0.494,0.242,0.921,0.443,1.278
			c0.197,0.357,0.457,0.633,0.777,0.832c0.316,0.197,0.697,0.298,1.148,0.298c0.436,0,0.813-0.106,1.129-0.316
			c0.318-0.213,0.58-0.499,0.787-0.858c0.205-0.364,0.357-0.787,0.457-1.271C156.9,44.137,156.949,43.618,156.949,43.068z"/>
		<path fill="#231F20" d="M166.758,41.053c0,0.416-0.074,0.827-0.232,1.239c-0.156,0.407-0.398,0.773-0.727,1.097
			s-0.748,0.583-1.256,0.782c-0.51,0.202-1.119,0.302-1.83,0.302h-1.264v3.665h-1.391V37.929h2.873c0.506,0,0.99,0.055,1.455,0.167
			c0.461,0.113,0.867,0.293,1.225,0.544c0.346,0.25,0.631,0.572,0.836,0.967C166.656,40.003,166.758,40.486,166.758,41.053z
			 M165.314,41.115c0-0.657-0.215-1.157-0.645-1.509c-0.43-0.347-1.029-0.522-1.799-0.522h-1.422v4.203h1.295
			c0.824,0,1.461-0.18,1.902-0.54C165.094,42.388,165.314,41.844,165.314,41.115z"/>
		<path fill="#231F20" d="M174.977,39.117h-4.336v3.31h4.107v1.164h-4.107v4.547h-1.422V37.929h5.758V39.117z"/>
	</g>
</g>
<g>
	<g>
		<path fill="#B7B8B5" d="M40.408,66.101l-0.168-0.069c0.038-0.089,3.747-9.123,4.05-15.135l0.18,0.01
			C44.166,56.949,40.445,66.01,40.408,66.101z"/>
	</g>
	<g>
		<path fill="#90C478" d="M47.466,45.2c0,0,0.315,0.902,2.837,0.405c2.524-0.494,12.439-5.767,16.54-6.173
			c4.101-0.405,7.975,5.362,10.723,7.254c0,0,1.4,0.091,1.623,0c0,0-5.135,7.3-10.185,9.194c-5.046,1.893-11.31-2.073-13.339-4.416
			c-2.027-2.344-5.496-3.245-6.443-2.929c0,0,0,0.18,0.676,0.767c0.674,0.585,4.504,4.143,5.996,5.45
			c1.481,1.31,1.442,3.111,1.481,4.236c0.045,1.129,0.452,7.076,0.452,7.076s-1.529-1.938-2.477-2.388
			c-0.949-0.451-6.445-0.048-8.158-7.527c0,0-0.385-2.252-0.53-4.236c0,0-0.596-2.344-1.092-2.253
			c-0.495,0.09-0.676,4.867-2.073,6.762c-1.398,1.893-1.938,3.379-5.993,5.137c0,0-1.442,1.171-1.578,1.667v-6.264
			c0,0,2.298-3.966,4.958-5.498c2.658-1.533,1.486-2.344,1.486-2.344s-1.938,0.901-4.101,2.659s-7.931,6.536-11.085,6.536
			c-3.155,0-6.49-1.487-8.336-3.604l-3.11-0.227l1.735-1.601l0.428-0.339c0,0,1.443-5.136,5.093-6.219
			c3.65-1.08,2.974-2.073,7.839-1.847c4.867,0.226,7.391,2.974,11.177,2.253c0,0-0.18-1.623,1.17-1.486c0,0,0.946-1.489,2.614-0.768
			C47.465,45.2,47.466,45.2,47.466,45.2z"/>
	</g>
	<g>
		<path fill="#1F4E26" d="M46.069,45.967c0.849-0.491,1.801-4.259,2.215-5.304c2.204-5.547,2.759-12.101,5.355-17.544
			c1.418-2.974,2.771-3.919,5.411-6.151c2.631-2.23,3.784-3.245,10.881-2.434c0,0,2.23,0.745,4.87-2.366
			c0,0-0.748,2.569-0.611,4.124c0.135,1.556,1.079,10.41-0.611,13.519c-1.688,3.11-1.688,4.732-9.866,7.707
			C55.531,40.491,46.069,45.967,46.069,45.967z"/>
	</g>
	<g>
		<path fill="#248140" d="M44.582,45.493c0,0-10.411-20.954-13.047-24.671c-2.636-3.72-0.406-9.33,4.462-14.939
			c0,0,4.326-3.245,4.326-5.882c0,0,2.501,4.056,4.259,5.341c1.757,1.285,3.854,1.69,5.272,3.719c0,0,7.592,5.527,3.785,10.949
			C46.665,29.946,44.582,45.493,44.582,45.493z"/>
	</g>
	<g>
		<path fill="#60B246" d="M43.229,46.576c0,0-9.193-15.886-10.545-18.996c-1.353-3.108-4.056-5.813-8.45-6.962
			c-4.394-1.148-11.83,0.948-12.979-1.081c0,4.687-0.313,9.812,1.487,14.263c1.151,2.839,3.584,6.692,11.222,7.302
			c7.639,0.607,18.996,5.475,18.996,5.475"/>
	</g>
</g>
</svg>
