<?xml version="1.0" encoding="utf-8"?>
<!-- Generator: Adobe Illustrator 16.2.0, SVG Export Plug-In . SVG Version: 6.00 Build 0)  -->
<!DOCTYPE svg PUBLIC "-//W3C//DTD SVG 1.1//EN" "http://www.w3.org/Graphics/SVG/1.1/DTD/svg11.dtd">
<svg version="1.1" id="Слой_1" xmlns="http://www.w3.org/2000/svg" xmlns:xlink="http://www.w3.org/1999/xlink" x="0px" y="0px"
	 width="94.387px" height="85.833px" viewBox="0 -7 94.387 85.833" enable-background="new 0 -7 94.387 85.833"
	 xml:space="preserve">
<g>
	<g>
		<path fill="#B7B8B5" d="M41.196,78.833l-0.164-0.067c0.037-0.089,3.679-8.957,3.976-14.86l0.178,0.012
			C44.885,69.848,41.233,78.742,41.196,78.833z"/>
	</g>
	<g>
		<path fill="#90C478" d="M48.125,58.313c0,0,0.309,0.885,2.787,0.397c2.479-0.485,12.211-5.663,16.236-6.061
			c4.027-0.397,7.83,5.265,10.529,7.122c0,0,1.373,0.089,1.592,0c0,0-5.041,7.167-10,9.026c-4.953,1.858-11.104-2.035-13.096-4.336
			c-1.99-2.301-5.396-3.187-6.324-2.875c0,0,0,0.177,0.664,0.752c0.66,0.576,4.422,4.068,5.887,5.353
			c1.453,1.285,1.414,3.054,1.453,4.158c0.045,1.108,0.443,6.946,0.443,6.946s-1.502-1.901-2.432-2.345
			c-0.932-0.442-6.326-0.047-8.01-7.391c0,0-0.377-2.21-0.52-4.158c0,0-0.585-2.301-1.072-2.211
			c-0.487,0.088-0.664,4.778-2.036,6.64c-1.372,1.856-1.902,3.316-5.884,5.043c0,0-1.416,1.149-1.55,1.637v-6.15
			c0,0,2.257-3.895,4.868-5.396c2.608-1.506,1.459-2.301,1.459-2.301s-1.902,0.883-4.025,2.609
			c-2.124,1.727-7.787,6.417-10.883,6.417c-3.098,0-6.372-1.459-8.186-3.538l-3.053-0.223l1.704-1.572l0.42-0.332
			c0,0,1.417-5.043,5-6.105c3.584-1.061,2.919-2.036,7.696-1.813c4.778,0.223,7.257,2.92,10.973,2.212c0,0-0.176-1.594,1.149-1.459
			c0,0,0.928-1.462,2.565-0.753C48.125,58.313,48.125,58.313,48.125,58.313z"/>
	</g>
	<g>
		<path fill="#1F4E26" d="M46.755,59.065c0.833-0.48,1.767-4.183,2.173-5.208c2.164-5.445,2.709-11.88,5.258-17.224
			c1.393-2.92,2.721-3.848,5.313-6.04c2.584-2.189,3.715-3.186,10.684-2.389c0,0,2.189,0.731,4.781-2.323c0,0-0.734,2.522-0.6,4.049
			c0.133,1.528,1.059,10.221-0.602,13.272c-1.656,3.054-1.656,4.646-9.686,7.567C56.045,53.689,46.755,59.065,46.755,59.065z"/>
	</g>
	<g>
		<path fill="#248140" d="M45.295,58.601c0,0-10.221-20.572-12.81-24.222c-2.587-3.652-0.398-9.16,4.381-14.667
			c0,0,4.247-3.186,4.247-5.774c0,0,2.456,3.982,4.182,5.243c1.725,1.262,3.786,1.66,5.176,3.651c0,0,7.453,5.426,3.717,10.75
			C47.34,43.336,45.295,58.601,45.295,58.601z"/>
	</g>
	<g>
		<path fill="#60B246" d="M43.967,59.663c0,0-9.026-15.598-10.354-18.649c-1.328-3.051-3.981-5.707-8.296-6.835
			c-4.313-1.127-11.613,0.931-12.741-1.061c0,4.601-0.308,9.633,1.46,14.002c1.13,2.788,3.519,6.57,11.017,7.169
			c7.5,0.596,18.649,5.374,18.649,5.374"/>
	</g>
</g>
</svg>
